<svg width="240" height="82" viewBox="0 0 240 82" fill="none" xmlns="http://www.w3.org/2000/svg">
<path d="M140.639 61V55.1818H142.77C143.183 55.1818 143.525 55.25 143.795 55.3864C144.066 55.5208 144.269 55.7036 144.403 55.9347C144.538 56.1638 144.605 56.4223 144.605 56.7102C144.605 56.9527 144.561 57.1572 144.472 57.3239C144.383 57.4886 144.263 57.6212 144.114 57.7216C143.966 57.8201 143.803 57.892 143.625 57.9375V57.9943C143.818 58.0038 144.007 58.0663 144.19 58.1818C144.376 58.2955 144.529 58.4574 144.651 58.6676C144.772 58.8778 144.832 59.1335 144.832 59.4347C144.832 59.732 144.762 59.9991 144.622 60.2358C144.484 60.4706 144.27 60.6572 143.98 60.7955C143.69 60.9318 143.32 61 142.869 61H140.639ZM141.517 60.2472H142.784C143.205 60.2472 143.506 60.1657 143.688 60.0028C143.869 59.84 143.96 59.6364 143.96 59.392C143.96 59.2083 143.914 59.0398 143.821 58.8864C143.728 58.733 143.596 58.6108 143.423 58.5199C143.253 58.429 143.05 58.3835 142.815 58.3835H141.517V60.2472ZM141.517 57.6989H142.693C142.89 57.6989 143.067 57.661 143.224 57.5852C143.384 57.5095 143.509 57.4034 143.602 57.267C143.697 57.1288 143.744 56.9659 143.744 56.7784C143.744 56.5379 143.66 56.3362 143.491 56.1733C143.323 56.0104 143.064 55.929 142.716 55.929H141.517V57.6989ZM146.342 62.6364C146.215 62.6364 146.1 62.6259 145.996 62.6051C145.892 62.5862 145.814 62.5653 145.763 62.5426L145.967 61.8466C146.123 61.8883 146.261 61.9063 146.382 61.9006C146.503 61.8949 146.61 61.8494 146.703 61.7642C146.798 61.679 146.881 61.5398 146.953 61.3466L147.058 61.0568L145.462 56.6364H146.371L147.476 60.0227H147.521L148.626 56.6364H149.538L147.74 61.5824C147.657 61.8097 147.551 62.0019 147.422 62.1591C147.293 62.3182 147.14 62.4375 146.962 62.517C146.784 62.5966 146.577 62.6364 146.342 62.6364ZM152.522 61V55.1818H154.653C155.066 55.1818 155.407 55.25 155.678 55.3864C155.949 55.5208 156.152 55.7036 156.286 55.9347C156.421 56.1638 156.488 56.4223 156.488 56.7102C156.488 56.9527 156.443 57.1572 156.354 57.3239C156.265 57.4886 156.146 57.6212 155.996 57.7216C155.849 57.8201 155.686 57.892 155.508 57.9375V57.9943C155.701 58.0038 155.889 58.0663 156.073 58.1818C156.259 58.2955 156.412 58.4574 156.533 58.6676C156.655 58.8778 156.715 59.1335 156.715 59.4347C156.715 59.732 156.645 59.9991 156.505 60.2358C156.367 60.4706 156.153 60.6572 155.863 60.7955C155.573 60.9318 155.203 61 154.752 61H152.522ZM153.4 60.2472H154.667C155.087 60.2472 155.388 60.1657 155.57 60.0028C155.752 59.84 155.843 59.6364 155.843 59.392C155.843 59.2083 155.797 59.0398 155.704 58.8864C155.611 58.733 155.478 58.6108 155.306 58.5199C155.136 58.429 154.933 58.3835 154.698 58.3835H153.4V60.2472ZM153.4 57.6989H154.576C154.773 57.6989 154.95 57.661 155.107 57.5852C155.266 57.5095 155.392 57.4034 155.485 57.267C155.58 57.1288 155.627 56.9659 155.627 56.7784C155.627 56.5379 155.543 56.3362 155.374 56.1733C155.206 56.0104 154.947 55.929 154.599 55.929H153.4V57.6989ZM159.526 61.0881C159.117 61.0881 158.76 60.9943 158.455 60.8068C158.15 60.6193 157.914 60.357 157.745 60.0199C157.576 59.6828 157.492 59.2888 157.492 58.8381C157.492 58.3854 157.576 57.9896 157.745 57.6506C157.914 57.3116 158.15 57.0483 158.455 56.8608C158.76 56.6733 159.117 56.5795 159.526 56.5795C159.935 56.5795 160.292 56.6733 160.597 56.8608C160.902 57.0483 161.139 57.3116 161.308 57.6506C161.476 57.9896 161.56 58.3854 161.56 58.8381C161.56 59.2888 161.476 59.6828 161.308 60.0199C161.139 60.357 160.902 60.6193 160.597 60.8068C160.292 60.9943 159.935 61.0881 159.526 61.0881ZM159.529 60.375C159.794 60.375 160.014 60.3049 160.188 60.1648C160.362 60.0246 160.491 59.8381 160.575 59.6051C160.66 59.3722 160.702 59.1155 160.702 58.8352C160.702 58.5568 160.66 58.3011 160.575 58.0682C160.491 57.8333 160.362 57.6449 160.188 57.5028C160.014 57.3608 159.794 57.2898 159.529 57.2898C159.262 57.2898 159.04 57.3608 158.864 57.5028C158.69 57.6449 158.56 57.8333 158.475 58.0682C158.392 58.3011 158.35 58.5568 158.35 58.8352C158.35 59.1155 158.392 59.3722 158.475 59.6051C158.56 59.8381 158.69 60.0246 158.864 60.1648C159.04 60.3049 159.262 60.375 159.529 60.375ZM163.358 58.4091V61H162.509V56.6364H163.324V57.3466H163.378C163.478 57.1155 163.635 56.9299 163.849 56.7898C164.065 56.6496 164.337 56.5795 164.665 56.5795C164.962 56.5795 165.223 56.642 165.446 56.767C165.67 56.8902 165.843 57.0739 165.966 57.3182C166.089 57.5625 166.151 57.8646 166.151 58.2244V61H165.301V58.3267C165.301 58.0104 165.219 57.7633 165.054 57.5852C164.889 57.4053 164.663 57.3153 164.375 57.3153C164.178 57.3153 164.003 57.358 163.849 57.4432C163.698 57.5284 163.578 57.6534 163.489 57.8182C163.402 57.9811 163.358 58.178 163.358 58.4091ZM169.119 62.7273C168.773 62.7273 168.474 62.6818 168.224 62.5909C167.976 62.5 167.774 62.3797 167.616 62.2301C167.459 62.0805 167.342 61.9167 167.264 61.7386L167.994 61.4375C168.045 61.5208 168.114 61.6089 168.199 61.7017C168.286 61.7964 168.403 61.8769 168.551 61.9432C168.701 62.0095 168.893 62.0426 169.128 62.0426C169.45 62.0426 169.716 61.964 169.926 61.8068C170.136 61.6515 170.241 61.4034 170.241 61.0625V60.2045H170.188C170.136 60.2973 170.063 60.4006 169.966 60.5142C169.871 60.6278 169.741 60.7263 169.574 60.8097C169.407 60.893 169.19 60.9347 168.923 60.9347C168.579 60.9347 168.268 60.8542 167.991 60.6932C167.717 60.5303 167.499 60.2907 167.338 59.9744C167.179 59.6562 167.099 59.2652 167.099 58.8011C167.099 58.3371 167.178 57.9394 167.335 57.608C167.494 57.2765 167.712 57.0227 167.989 56.8466C168.265 56.6686 168.579 56.5795 168.929 56.5795C169.2 56.5795 169.419 56.625 169.585 56.7159C169.752 56.8049 169.882 56.9091 169.974 57.0284C170.069 57.1477 170.142 57.2528 170.193 57.3438H170.256V56.6364H171.088V61.0966C171.088 61.4716 171.001 61.7794 170.827 62.0199C170.652 62.2604 170.417 62.4384 170.119 62.554C169.824 62.6695 169.491 62.7273 169.119 62.7273ZM169.111 60.2301C169.355 60.2301 169.562 60.1733 169.73 60.0597C169.901 59.9441 170.029 59.7794 170.116 59.5653C170.205 59.3494 170.25 59.0909 170.25 58.7898C170.25 58.4962 170.206 58.2377 170.119 58.0142C170.032 57.7907 169.904 57.6165 169.736 57.4915C169.567 57.3646 169.359 57.3011 169.111 57.3011C168.855 57.3011 168.642 57.3674 168.472 57.5C168.301 57.6307 168.172 57.8087 168.085 58.0341C168 58.2595 167.957 58.5114 167.957 58.7898C167.957 59.0758 168.001 59.3267 168.088 59.5426C168.175 59.7585 168.304 59.9271 168.474 60.0483C168.647 60.1695 168.859 60.2301 169.111 60.2301ZM174.065 61.0881C173.656 61.0881 173.299 60.9943 172.994 60.8068C172.689 60.6193 172.453 60.357 172.284 60.0199C172.116 59.6828 172.031 59.2888 172.031 58.8381C172.031 58.3854 172.116 57.9896 172.284 57.6506C172.453 57.3116 172.689 57.0483 172.994 56.8608C173.299 56.6733 173.656 56.5795 174.065 56.5795C174.474 56.5795 174.831 56.6733 175.136 56.8608C175.441 57.0483 175.678 57.3116 175.847 57.6506C176.015 57.9896 176.099 58.3854 176.099 58.8381C176.099 59.2888 176.015 59.6828 175.847 60.0199C175.678 60.357 175.441 60.6193 175.136 60.8068C174.831 60.9943 174.474 61.0881 174.065 61.0881ZM174.068 60.375C174.333 60.375 174.553 60.3049 174.727 60.1648C174.902 60.0246 175.03 59.8381 175.114 59.6051C175.199 59.3722 175.241 59.1155 175.241 58.8352C175.241 58.5568 175.199 58.3011 175.114 58.0682C175.03 57.8333 174.902 57.6449 174.727 57.5028C174.553 57.3608 174.333 57.2898 174.068 57.2898C173.801 57.2898 173.58 57.3608 173.403 57.5028C173.229 57.6449 173.099 57.8333 173.014 58.0682C172.931 58.3011 172.889 58.5568 172.889 58.8352C172.889 59.1155 172.931 59.3722 173.014 59.6051C173.099 59.8381 173.229 60.0246 173.403 60.1648C173.58 60.3049 173.801 60.375 174.068 60.375ZM177.897 58.4091V61H177.048V55.1818H177.886V57.3466H177.94C178.042 57.1117 178.198 56.9252 178.408 56.7869C178.619 56.6487 178.893 56.5795 179.232 56.5795C179.531 56.5795 179.793 56.6411 180.016 56.7642C180.242 56.8873 180.416 57.071 180.539 57.3153C180.664 57.5578 180.727 57.8608 180.727 58.2244V61H179.877V58.3267C179.877 58.0066 179.795 57.7585 179.63 57.5824C179.465 57.4044 179.236 57.3153 178.942 57.3153C178.742 57.3153 178.562 57.358 178.403 57.4432C178.246 57.5284 178.121 57.6534 178.031 57.8182C177.942 57.9811 177.897 58.178 177.897 58.4091ZM181.86 61V56.6364H182.71V61H181.86ZM182.289 55.9631C182.141 55.9631 182.014 55.9138 181.908 55.8153C181.804 55.715 181.752 55.5956 181.752 55.4574C181.752 55.3172 181.804 55.1979 181.908 55.0994C182.014 54.9991 182.141 54.9489 182.289 54.9489C182.437 54.9489 182.563 54.9991 182.667 55.0994C182.773 55.1979 182.826 55.3172 182.826 55.4574C182.826 55.5956 182.773 55.715 182.667 55.8153C182.563 55.9138 182.437 55.9631 182.289 55.9631ZM187.585 56.6364L186.003 61H185.094L183.509 56.6364H184.42L185.526 59.9943H185.571L186.673 56.6364H187.585ZM190.116 61.0881C189.686 61.0881 189.316 60.9962 189.005 60.8125C188.696 60.6269 188.458 60.3665 188.289 60.0312C188.122 59.6941 188.039 59.2992 188.039 58.8466C188.039 58.3996 188.122 58.0057 188.289 57.6648C188.458 57.3239 188.692 57.0578 188.994 56.8665C189.297 56.6752 189.651 56.5795 190.056 56.5795C190.302 56.5795 190.541 56.6203 190.772 56.7017C191.003 56.7831 191.21 56.911 191.394 57.0852C191.578 57.2595 191.723 57.4858 191.829 57.7642C191.935 58.0407 191.988 58.3769 191.988 58.7727V59.0739H188.519V58.4375H191.156C191.156 58.214 191.11 58.0161 191.019 57.8438C190.928 57.6695 190.8 57.5322 190.636 57.4318C190.473 57.3314 190.281 57.2812 190.062 57.2812C189.823 57.2812 189.615 57.34 189.437 57.4574C189.261 57.5729 189.124 57.7244 189.028 57.9119C188.933 58.0975 188.886 58.2992 188.886 58.517V59.0142C188.886 59.3059 188.937 59.554 189.039 59.7585C189.143 59.9631 189.288 60.1193 189.474 60.2273C189.659 60.3333 189.876 60.3864 190.124 60.3864C190.285 60.3864 190.432 60.3636 190.565 60.3182C190.697 60.2708 190.812 60.2008 190.908 60.108C191.005 60.0152 191.079 59.9006 191.13 59.7642L191.934 59.9091C191.87 60.1458 191.754 60.3532 191.587 60.5312C191.423 60.7074 191.215 60.8447 190.965 60.9432C190.717 61.0398 190.434 61.0881 190.116 61.0881ZM199.948 57.0739H199.062C199.028 56.8845 198.964 56.7178 198.871 56.5739C198.779 56.4299 198.665 56.3078 198.531 56.2074C198.396 56.107 198.246 56.0312 198.079 55.9801C197.914 55.929 197.739 55.9034 197.553 55.9034C197.218 55.9034 196.918 55.9877 196.653 56.1562C196.389 56.3248 196.181 56.572 196.028 56.8977C195.876 57.2235 195.8 57.6212 195.8 58.0909C195.8 58.5644 195.876 58.964 196.028 59.2898C196.181 59.6155 196.39 59.8617 196.656 60.0284C196.921 60.1951 197.219 60.2784 197.55 60.2784C197.734 60.2784 197.908 60.2538 198.073 60.2045C198.24 60.1534 198.39 60.0786 198.525 59.9801C198.659 59.8816 198.773 59.7614 198.866 59.6193C198.96 59.4754 199.026 59.3106 199.062 59.125L199.948 59.1278C199.901 59.4138 199.809 59.6771 199.673 59.9176C199.538 60.1562 199.365 60.3627 199.153 60.5369C198.942 60.7093 198.702 60.8428 198.431 60.9375C198.16 61.0322 197.865 61.0795 197.545 61.0795C197.041 61.0795 196.592 60.9602 196.198 60.7216C195.804 60.4811 195.494 60.1373 195.266 59.6903C195.041 59.2434 194.928 58.7102 194.928 58.0909C194.928 57.4697 195.042 56.9366 195.269 56.4915C195.496 56.0445 195.807 55.7017 196.201 55.4631C196.595 55.2225 197.043 55.1023 197.545 55.1023C197.853 55.1023 198.141 55.1468 198.408 55.2358C198.677 55.3229 198.919 55.4517 199.133 55.6222C199.347 55.7907 199.524 55.9972 199.664 56.2415C199.804 56.4839 199.899 56.7614 199.948 57.0739ZM202.768 61.0881C202.359 61.0881 202.002 60.9943 201.697 60.8068C201.393 60.6193 201.156 60.357 200.987 60.0199C200.819 59.6828 200.734 59.2888 200.734 58.8381C200.734 58.3854 200.819 57.9896 200.987 57.6506C201.156 57.3116 201.393 57.0483 201.697 56.8608C202.002 56.6733 202.359 56.5795 202.768 56.5795C203.178 56.5795 203.535 56.6733 203.839 56.8608C204.144 57.0483 204.381 57.3116 204.55 57.6506C204.718 57.9896 204.803 58.3854 204.803 58.8381C204.803 59.2888 204.718 59.6828 204.55 60.0199C204.381 60.357 204.144 60.6193 203.839 60.8068C203.535 60.9943 203.178 61.0881 202.768 61.0881ZM202.771 60.375C203.036 60.375 203.256 60.3049 203.43 60.1648C203.605 60.0246 203.733 59.8381 203.817 59.6051C203.902 59.3722 203.945 59.1155 203.945 58.8352C203.945 58.5568 203.902 58.3011 203.817 58.0682C203.733 57.8333 203.605 57.6449 203.43 57.5028C203.256 57.3608 203.036 57.2898 202.771 57.2898C202.504 57.2898 202.283 57.3608 202.107 57.5028C201.932 57.6449 201.803 57.8333 201.717 58.0682C201.634 58.3011 201.592 58.5568 201.592 58.8352C201.592 59.1155 201.634 59.3722 201.717 59.6051C201.803 59.8381 201.932 60.0246 202.107 60.1648C202.283 60.3049 202.504 60.375 202.771 60.375ZM206.6 58.4091V61H205.751V56.6364H206.566V57.3466H206.62C206.72 57.1155 206.878 56.9299 207.092 56.7898C207.308 56.6496 207.579 56.5795 207.907 56.5795C208.204 56.5795 208.465 56.642 208.688 56.767C208.912 56.8902 209.085 57.0739 209.208 57.3182C209.331 57.5625 209.393 57.8646 209.393 58.2244V61H208.543V58.3267C208.543 58.0104 208.461 57.7633 208.296 57.5852C208.131 57.4053 207.905 57.3153 207.617 57.3153C207.42 57.3153 207.245 57.358 207.092 57.4432C206.94 57.5284 206.82 57.6534 206.731 57.8182C206.644 57.9811 206.6 58.178 206.6 58.4091ZM213.802 57.7017L213.032 57.8381C213 57.7396 212.949 57.6458 212.879 57.5568C212.81 57.4678 212.718 57.3949 212.6 57.3381C212.483 57.2812 212.336 57.2528 212.16 57.2528C211.919 57.2528 211.719 57.3068 211.558 57.4148C211.397 57.5208 211.316 57.6581 211.316 57.8267C211.316 57.9725 211.37 58.09 211.478 58.179C211.586 58.268 211.76 58.3409 212.001 58.3977L212.694 58.5568C213.095 58.6496 213.395 58.7926 213.592 58.9858C213.789 59.179 213.887 59.4299 213.887 59.7386C213.887 60 213.811 60.233 213.66 60.4375C213.51 60.6402 213.301 60.7992 213.032 60.9148C212.765 61.0303 212.455 61.0881 212.103 61.0881C211.614 61.0881 211.216 60.9839 210.907 60.7756C210.598 60.5653 210.409 60.267 210.339 59.8807L211.16 59.7557C211.211 59.9697 211.316 60.1316 211.475 60.2415C211.634 60.3494 211.842 60.4034 212.097 60.4034C212.376 60.4034 212.598 60.3456 212.765 60.2301C212.932 60.1127 213.015 59.9697 213.015 59.8011C213.015 59.6648 212.964 59.5502 212.862 59.4574C212.761 59.3646 212.607 59.2945 212.398 59.2472L211.66 59.0852C211.253 58.9924 210.951 58.8447 210.756 58.642C210.563 58.4394 210.467 58.1828 210.467 57.8722C210.467 57.6146 210.539 57.3892 210.683 57.196C210.826 57.0028 211.025 56.8523 211.279 56.7443C211.533 56.6345 211.824 56.5795 212.151 56.5795C212.623 56.5795 212.994 56.6818 213.265 56.8864C213.536 57.089 213.715 57.3608 213.802 57.7017ZM217.585 59.1903V56.6364H218.438V61H217.602V60.2443H217.557C217.456 60.4773 217.295 60.6714 217.074 60.8267C216.854 60.9801 216.58 61.0568 216.253 61.0568C215.973 61.0568 215.724 60.9953 215.509 60.8722C215.295 60.7472 215.126 60.5625 215.003 60.3182C214.882 60.0739 214.821 59.7718 214.821 59.4119V56.6364H215.67V59.3097C215.67 59.607 215.753 59.8437 215.918 60.0199C216.082 60.196 216.296 60.2841 216.56 60.2841C216.719 60.2841 216.877 60.2443 217.034 60.1648C217.193 60.0852 217.325 59.965 217.429 59.804C217.535 59.643 217.587 59.4384 217.585 59.1903ZM220.428 55.1818V61H219.579V55.1818H220.428ZM223.608 56.6364V57.3182H221.224V56.6364H223.608ZM221.864 55.5909H222.713V59.7188C222.713 59.8835 222.738 60.0076 222.787 60.0909C222.836 60.1723 222.9 60.2282 222.977 60.2585C223.057 60.2869 223.143 60.3011 223.236 60.3011C223.304 60.3011 223.364 60.2964 223.415 60.2869C223.466 60.2775 223.506 60.2699 223.534 60.2642L223.688 60.9659C223.638 60.9848 223.568 61.0038 223.477 61.0227C223.386 61.0436 223.273 61.0549 223.136 61.0568C222.913 61.0606 222.705 61.0208 222.511 60.9375C222.318 60.8542 222.162 60.7254 222.043 60.5511C221.923 60.3769 221.864 60.1581 221.864 59.8949V55.5909Z" fill="#DADADA"/>
<path d="M94.2273 36.4545H87.8182C87.7727 35.9242 87.6515 35.4432 87.4545 35.0114C87.2652 34.5795 87 34.2083 86.6591 33.8977C86.3258 33.5795 85.9205 33.3371 85.4432 33.1705C84.9659 32.9962 84.4242 32.9091 83.8182 32.9091C82.7576 32.9091 81.8598 33.1667 81.125 33.6818C80.3977 34.197 79.8447 34.9356 79.4659 35.8977C79.0947 36.8598 78.9091 38.0152 78.9091 39.3636C78.9091 40.7879 79.0985 41.9811 79.4773 42.9432C79.8636 43.8977 80.4205 44.6174 81.1477 45.1023C81.875 45.5795 82.75 45.8182 83.7727 45.8182C84.3561 45.8182 84.8788 45.7462 85.3409 45.6023C85.803 45.4508 86.2045 45.2348 86.5455 44.9545C86.8864 44.6742 87.1629 44.3371 87.375 43.9432C87.5947 43.5417 87.7424 43.0909 87.8182 42.5909L94.2273 42.6364C94.1515 43.6212 93.875 44.625 93.3977 45.6477C92.9205 46.6629 92.2424 47.6023 91.3636 48.4659C90.4924 49.322 89.4129 50.0114 88.125 50.5341C86.8371 51.0568 85.3409 51.3182 83.6364 51.3182C81.5 51.3182 79.5833 50.8598 77.8864 49.9432C76.197 49.0265 74.8598 47.678 73.875 45.8977C72.8977 44.1174 72.4091 41.9394 72.4091 39.3636C72.4091 36.7727 72.9091 34.5909 73.9091 32.8182C74.9091 31.0379 76.2576 29.6932 77.9545 28.7841C79.6515 27.8674 81.5455 27.4091 83.6364 27.4091C85.1061 27.4091 86.4583 27.6098 87.6932 28.0114C88.928 28.4129 90.0114 29 90.9432 29.7727C91.875 30.5379 92.625 31.4811 93.1932 32.6023C93.7614 33.7235 94.1061 35.0076 94.2273 36.4545ZM103.457 41.1818V51H97.1847V27.7273H103.23V36.8636H103.412C103.806 35.75 104.461 34.8826 105.378 34.2614C106.295 33.6326 107.397 33.3182 108.685 33.3182C109.92 33.3182 110.991 33.5985 111.901 34.1591C112.817 34.7197 113.526 35.4924 114.026 36.4773C114.533 37.4621 114.783 38.5909 114.776 39.8636V51H108.503V41.1818C108.51 40.3182 108.295 39.6402 107.855 39.1477C107.423 38.6553 106.806 38.4091 106.003 38.4091C105.495 38.4091 105.048 38.5227 104.662 38.75C104.283 38.9697 103.988 39.2879 103.776 39.7045C103.571 40.1136 103.465 40.6061 103.457 41.1818ZM122.736 51.2727C121.622 51.2727 120.637 51.0909 119.781 50.7273C118.933 50.3561 118.266 49.7955 117.781 49.0455C117.296 48.2955 117.054 47.3409 117.054 46.1818C117.054 45.2273 117.217 44.4129 117.543 43.7386C117.868 43.0568 118.323 42.5 118.906 42.0682C119.49 41.6364 120.168 41.3068 120.94 41.0795C121.721 40.8523 122.562 40.7045 123.463 40.6364C124.44 40.5606 125.224 40.4697 125.815 40.3636C126.414 40.25 126.846 40.0947 127.111 39.8977C127.376 39.6932 127.509 39.4242 127.509 39.0909V39.0455C127.509 38.5909 127.334 38.2424 126.986 38C126.637 37.7576 126.19 37.6364 125.645 37.6364C125.046 37.6364 124.558 37.7689 124.179 38.0341C123.808 38.2917 123.584 38.6894 123.509 39.2273H117.736C117.812 38.1667 118.149 37.1894 118.747 36.2955C119.353 35.3939 120.236 34.6742 121.395 34.1364C122.554 33.5909 124.001 33.3182 125.736 33.3182C126.986 33.3182 128.107 33.4659 129.099 33.7614C130.092 34.0492 130.937 34.4545 131.634 34.9773C132.33 35.4924 132.861 36.0985 133.224 36.7955C133.596 37.4848 133.781 38.2348 133.781 39.0455V51H127.918V48.5455H127.781C127.433 49.197 127.009 49.7235 126.509 50.125C126.016 50.5265 125.452 50.8182 124.815 51C124.187 51.1818 123.493 51.2727 122.736 51.2727ZM124.781 47.3182C125.259 47.3182 125.705 47.2197 126.122 47.0227C126.546 46.8258 126.891 46.5417 127.156 46.1705C127.421 45.7992 127.554 45.3485 127.554 44.8182V43.3636C127.387 43.4318 127.209 43.4962 127.02 43.5568C126.838 43.6174 126.641 43.6742 126.429 43.7273C126.224 43.7803 126.005 43.8295 125.77 43.875C125.543 43.9205 125.304 43.9621 125.054 44C124.569 44.0758 124.171 44.2008 123.861 44.375C123.558 44.5417 123.33 44.75 123.179 45C123.035 45.2424 122.963 45.5152 122.963 45.8182C122.963 46.303 123.134 46.6742 123.474 46.9318C123.815 47.1894 124.251 47.3182 124.781 47.3182ZM147.188 33.5455V38.0909H135.688V33.5455H147.188ZM137.915 29.3636H144.188V45.3864C144.188 45.6288 144.229 45.8333 144.312 46C144.396 46.1591 144.525 46.2803 144.699 46.3636C144.873 46.4394 145.097 46.4773 145.369 46.4773C145.559 46.4773 145.778 46.4545 146.028 46.4091C146.286 46.3636 146.475 46.3258 146.597 46.2955L147.506 50.7045C147.225 50.7879 146.824 50.8902 146.301 51.0114C145.786 51.1326 145.172 51.2121 144.46 51.25C143.021 51.3258 141.813 51.178 140.835 50.8068C139.858 50.428 139.123 49.8333 138.631 49.0227C138.138 48.2121 137.9 47.197 137.915 45.9773V29.3636ZM170.168 27.7273V51H164.895L156.486 38.7727H156.349V51H150.031V27.7273H155.395L163.668 39.9091H163.849V27.7273H170.168ZM181.611 51.3182C179.747 51.3182 178.141 50.9621 176.793 50.25C175.452 49.5303 174.418 48.5 173.69 47.1591C172.971 45.8106 172.611 44.197 172.611 42.3182C172.611 40.5152 172.974 38.9394 173.702 37.5909C174.429 36.2424 175.455 35.1932 176.781 34.4432C178.107 33.6932 179.671 33.3182 181.474 33.3182C182.793 33.3182 183.986 33.5227 185.054 33.9318C186.122 34.3409 187.035 34.9356 187.793 35.7159C188.55 36.4886 189.134 37.428 189.543 38.5341C189.952 39.6402 190.156 40.8864 190.156 42.2727V43.7273H174.565V40.2727H184.384C184.376 39.7727 184.247 39.3333 183.997 38.9545C183.755 38.5682 183.425 38.2689 183.009 38.0568C182.599 37.8371 182.134 37.7273 181.611 37.7273C181.103 37.7273 180.637 37.8371 180.213 38.0568C179.789 38.2689 179.448 38.5644 179.19 38.9432C178.94 39.322 178.808 39.7652 178.793 40.2727V44C178.793 44.5606 178.91 45.0606 179.145 45.5C179.38 45.9394 179.717 46.2841 180.156 46.5341C180.596 46.7841 181.126 46.9091 181.747 46.9091C182.179 46.9091 182.573 46.8485 182.929 46.7273C183.293 46.6061 183.603 46.4318 183.861 46.2045C184.118 45.9697 184.308 45.6894 184.429 45.3636H190.156C189.959 46.5758 189.493 47.6288 188.759 48.5227C188.024 49.4091 187.05 50.0985 185.838 50.5909C184.634 51.0758 183.224 51.3182 181.611 51.3182ZM208.67 39.2273H202.898C202.867 38.8712 202.742 38.5644 202.523 38.3068C202.303 38.0492 202.019 37.8523 201.67 37.7159C201.33 37.572 200.951 37.5 200.534 37.5C199.996 37.5 199.534 37.5985 199.148 37.7955C198.761 37.9924 198.572 38.2727 198.58 38.6364C198.572 38.8939 198.682 39.1326 198.909 39.3523C199.144 39.572 199.595 39.7424 200.261 39.8636L203.807 40.5C205.595 40.8258 206.924 41.375 207.795 42.1477C208.674 42.9129 209.117 43.9394 209.125 45.2273C209.117 46.4697 208.746 47.5492 208.011 48.4659C207.284 49.375 206.288 50.0795 205.023 50.5795C203.765 51.072 202.33 51.3182 200.716 51.3182C198.049 51.3182 195.962 50.7727 194.455 49.6818C192.955 48.5909 192.117 47.1515 191.943 45.3636H198.17C198.254 45.9167 198.527 46.3447 198.989 46.6477C199.458 46.9432 200.049 47.0909 200.761 47.0909C201.337 47.0909 201.811 46.9924 202.182 46.7955C202.561 46.5985 202.754 46.3182 202.761 45.9545C202.754 45.6212 202.587 45.3561 202.261 45.1591C201.943 44.9621 201.443 44.803 200.761 44.6818L197.67 44.1364C195.89 43.8258 194.557 43.2348 193.67 42.3636C192.784 41.4924 192.345 40.3712 192.352 39C192.345 37.7879 192.663 36.7614 193.307 35.9205C193.958 35.072 194.886 34.428 196.091 33.9886C197.303 33.5417 198.739 33.3182 200.398 33.3182C202.92 33.3182 204.909 33.8409 206.364 34.8864C207.826 35.9318 208.595 37.3788 208.67 39.2273ZM221.938 33.5455V38.0909H210.438V33.5455H221.938ZM212.665 29.3636H218.938V45.3864C218.938 45.6288 218.979 45.8333 219.062 46C219.146 46.1591 219.275 46.2803 219.449 46.3636C219.623 46.4394 219.847 46.4773 220.119 46.4773C220.309 46.4773 220.528 46.4545 220.778 46.4091C221.036 46.3636 221.225 46.3258 221.347 46.2955L222.256 50.7045C221.975 50.7879 221.574 50.8902 221.051 51.0114C220.536 51.1326 219.922 51.2121 219.21 51.25C217.771 51.3258 216.563 51.178 215.585 50.8068C214.608 50.428 213.873 49.8333 213.381 49.0227C212.888 48.2121 212.65 47.197 212.665 45.9773V29.3636Z" fill="#D97706"/>
<path d="M40.9994 63.0642C53.1849 63.0642 63.0632 53.1859 63.0632 41.0004C63.0632 28.8149 53.1849 18.9365 40.9994 18.9365C28.8139 18.9365 18.9355 28.8149 18.9355 41.0004C18.9355 53.1859 28.8139 63.0642 40.9994 63.0642Z" fill="#D97706"/>
<path d="M52.9317 41.3047C52.9317 35.0549 47.8182 29.9414 41.4737 29.9414C35.1291 29.9414 30.0156 35.0549 30.0156 41.3047C30.0156 46.2288 33.2352 50.4901 37.6859 52.0052L36.6442 54.7514L44.1251 52.384C49.1439 51.2477 52.9317 46.7023 52.9317 41.3047ZM44.3145 48.8803C42.4206 48.8803 40.8108 47.5546 40.3373 45.8501H48.2917C47.8182 47.5546 46.2084 48.8803 44.3145 48.8803Z" fill="white"/>
<path d="M27.2062 39.4663C26.1099 39.6134 25.344 40.6205 25.4906 41.7134L25.961 45.22C26.108 46.3163 27.1152 47.0822 28.2081 46.9356L29.8474 46.7157C30.1961 46.6689 30.4399 46.3495 30.3931 46.0009L29.6112 40.171C29.5365 39.6144 29.0232 39.2226 28.4667 39.2972L27.2062 39.4663Z" fill="#3A2106"/>
<path d="M55.4593 38.6489L54.6604 38.5947C54.8083 39.3097 54.9125 40.041 54.9384 40.7943C54.9955 42.4534 54.7438 44.0827 54.1905 45.6368C54.123 45.8266 54.0021 45.9801 53.8535 46.0935L54.9499 46.1678C56.0501 46.2423 57.0048 45.412 57.0795 44.3084L57.3187 40.7784C57.3932 39.6783 56.5628 38.7236 55.4593 38.6489Z" fill="#3A2106"/>
<path d="M54.1902 38.5628L54.6602 38.5946C53.3743 32.3751 47.6905 27.7794 41.0453 28.0082C33.6361 28.2632 27.813 34.4139 28.0645 41.7192C28.1152 43.1939 28.4096 44.6353 28.9394 46.0027C29.1383 46.5166 29.7164 46.7742 30.2332 46.5737C30.6861 46.3983 30.9182 45.9295 30.8368 45.4687C30.3662 44.2928 30.0811 43.0244 30.0354 41.6963C29.8204 35.4502 34.7549 30.1638 41.0957 29.9455C45.4646 29.7951 49.3318 32.0917 51.3856 35.5773C52.2962 37.1066 52.846 38.8698 52.929 40.7579L53.1056 39.5098C53.1435 38.9495 53.63 38.5248 54.1902 38.5628Z" fill="#3A2106"/>
<path d="M54.1892 45.6368C54.7425 44.0827 54.9942 42.4534 54.9371 40.7943C54.9112 40.041 54.807 39.3097 54.6591 38.5947L54.1891 38.5629C53.6289 38.5249 53.1424 38.9496 53.1045 39.5099L52.9279 40.758C52.9295 40.7936 52.9371 40.8274 52.9383 40.8631C52.9428 40.9929 52.9336 41.1212 52.9336 41.2506C52.9393 42.5266 52.7279 43.7547 52.341 44.9068L52.3366 44.9379C52.3128 45.2888 52.4357 45.8723 53.2984 46.056L53.8521 46.0935C54.0008 45.98 54.1217 45.8266 54.1892 45.6368Z" fill="#3A2106"/>
<path d="M52.4448 44.6143C51.6299 47.2807 49.8595 49.5403 47.5312 50.9784L48.2795 52.2892C52.6264 49.8072 53.8399 45.1787 53.8889 44.9826L52.4448 44.6143Z" fill="#3A2106"/>
<path d="M44.6887 51.7485C44.7266 52.85 45.6216 53.7133 46.6876 53.6766C47.7537 53.6399 48.5871 52.7171 48.5492 51.6156C48.5113 50.5141 47.6164 49.651 46.5503 49.6877C45.4843 49.7244 44.6508 50.647 44.6887 51.7485Z" fill="#10FF71"/>
</svg>
